<mxfile host="app.diagrams.net" modified="2024-05-27T12:38:44.330Z" agent="Mozilla/5.0 (Windows NT 10.0; Win64; x64; rv:126.0) Gecko/20100101 Firefox/126.0" etag="4_Ec5ZGT2Tf-QLk5d_yH" version="24.4.9" type="github">
  <diagram name="Pagina-1" id="fvYqxe4pIWD3eZ9eRgZS">
    <mxGraphModel dx="3585" dy="3034" grid="1" gridSize="10" guides="1" tooltips="1" connect="1" arrows="1" fold="1" page="1" pageScale="1" pageWidth="827" pageHeight="1169" math="0" shadow="0">
      <root>
        <mxCell id="0" />
        <mxCell id="1" parent="0" />
        <mxCell id="ENTtIncBovZt0sLsYfHK-17" style="edgeStyle=orthogonalEdgeStyle;rounded=0;orthogonalLoop=1;jettySize=auto;html=1;entryX=0.75;entryY=0;entryDx=0;entryDy=0;fontSize=32;" edge="1" parent="1" source="ENTtIncBovZt0sLsYfHK-1" target="ENTtIncBovZt0sLsYfHK-13">
          <mxGeometry relative="1" as="geometry" />
        </mxCell>
        <mxCell id="ENTtIncBovZt0sLsYfHK-1" value="x" style="whiteSpace=wrap;html=1;aspect=fixed;fontSize=32;" vertex="1" parent="1">
          <mxGeometry x="260" width="80" height="80" as="geometry" />
        </mxCell>
        <mxCell id="ENTtIncBovZt0sLsYfHK-18" style="edgeStyle=orthogonalEdgeStyle;rounded=0;orthogonalLoop=1;jettySize=auto;html=1;entryX=0.75;entryY=0;entryDx=0;entryDy=0;fontSize=32;" edge="1" parent="1" source="ENTtIncBovZt0sLsYfHK-2" target="ENTtIncBovZt0sLsYfHK-14">
          <mxGeometry relative="1" as="geometry" />
        </mxCell>
        <mxCell id="ENTtIncBovZt0sLsYfHK-2" value="x" style="whiteSpace=wrap;html=1;aspect=fixed;fontSize=32;" vertex="1" parent="1">
          <mxGeometry x="420" width="80" height="80" as="geometry" />
        </mxCell>
        <mxCell id="ENTtIncBovZt0sLsYfHK-19" style="edgeStyle=orthogonalEdgeStyle;rounded=0;orthogonalLoop=1;jettySize=auto;html=1;entryX=0.25;entryY=0;entryDx=0;entryDy=0;fontSize=32;" edge="1" parent="1" source="ENTtIncBovZt0sLsYfHK-13" target="ENTtIncBovZt0sLsYfHK-15">
          <mxGeometry relative="1" as="geometry" />
        </mxCell>
        <mxCell id="ENTtIncBovZt0sLsYfHK-13" value="+" style="whiteSpace=wrap;html=1;aspect=fixed;fontSize=32;" vertex="1" parent="1">
          <mxGeometry x="240" y="160" width="80" height="80" as="geometry" />
        </mxCell>
        <mxCell id="ENTtIncBovZt0sLsYfHK-20" style="edgeStyle=orthogonalEdgeStyle;rounded=0;orthogonalLoop=1;jettySize=auto;html=1;entryX=0.75;entryY=0;entryDx=0;entryDy=0;fontSize=32;" edge="1" parent="1" source="ENTtIncBovZt0sLsYfHK-14" target="ENTtIncBovZt0sLsYfHK-15">
          <mxGeometry relative="1" as="geometry" />
        </mxCell>
        <mxCell id="ENTtIncBovZt0sLsYfHK-14" value="+" style="whiteSpace=wrap;html=1;aspect=fixed;fontSize=32;" vertex="1" parent="1">
          <mxGeometry x="400" y="160" width="80" height="80" as="geometry" />
        </mxCell>
        <mxCell id="ENTtIncBovZt0sLsYfHK-21" style="edgeStyle=orthogonalEdgeStyle;rounded=0;orthogonalLoop=1;jettySize=auto;html=1;entryX=0;entryY=1;entryDx=0;entryDy=0;fontSize=32;" edge="1" parent="1" source="ENTtIncBovZt0sLsYfHK-15" target="ENTtIncBovZt0sLsYfHK-39">
          <mxGeometry relative="1" as="geometry">
            <mxPoint x="600" y="600" as="targetPoint" />
            <Array as="points">
              <mxPoint x="360" y="480" />
            </Array>
          </mxGeometry>
        </mxCell>
        <mxCell id="ENTtIncBovZt0sLsYfHK-15" value="+" style="whiteSpace=wrap;html=1;aspect=fixed;fontSize=32;" vertex="1" parent="1">
          <mxGeometry x="320" y="320" width="80" height="80" as="geometry" />
        </mxCell>
        <mxCell id="ENTtIncBovZt0sLsYfHK-72" style="edgeStyle=orthogonalEdgeStyle;rounded=0;orthogonalLoop=1;jettySize=auto;html=1;entryX=0.75;entryY=0;entryDx=0;entryDy=0;fontSize=32;" edge="1" parent="1" source="ENTtIncBovZt0sLsYfHK-73" target="ENTtIncBovZt0sLsYfHK-74">
          <mxGeometry relative="1" as="geometry" />
        </mxCell>
        <mxCell id="ENTtIncBovZt0sLsYfHK-73" value="x" style="whiteSpace=wrap;html=1;aspect=fixed;fontSize=32;" vertex="1" parent="1">
          <mxGeometry x="320" y="720" width="80" height="80" as="geometry" />
        </mxCell>
        <mxCell id="ENTtIncBovZt0sLsYfHK-113" style="edgeStyle=orthogonalEdgeStyle;rounded=0;orthogonalLoop=1;jettySize=auto;html=1;entryX=0.5;entryY=0;entryDx=0;entryDy=0;fontSize=32;" edge="1" parent="1" source="ENTtIncBovZt0sLsYfHK-74" target="ENTtIncBovZt0sLsYfHK-112">
          <mxGeometry relative="1" as="geometry" />
        </mxCell>
        <mxCell id="ENTtIncBovZt0sLsYfHK-74" value="+" style="whiteSpace=wrap;html=1;aspect=fixed;fontSize=32;" vertex="1" parent="1">
          <mxGeometry x="300" y="880" width="80" height="80" as="geometry" />
        </mxCell>
        <mxCell id="ENTtIncBovZt0sLsYfHK-136" style="edgeStyle=orthogonalEdgeStyle;rounded=0;orthogonalLoop=1;jettySize=auto;html=1;entryX=0.75;entryY=1;entryDx=0;entryDy=0;fontSize=32;" edge="1" parent="1" source="ENTtIncBovZt0sLsYfHK-75" target="ENTtIncBovZt0sLsYfHK-105">
          <mxGeometry relative="1" as="geometry">
            <Array as="points">
              <mxPoint x="100" y="1200" />
              <mxPoint x="270" y="1200" />
            </Array>
          </mxGeometry>
        </mxCell>
        <mxCell id="ENTtIncBovZt0sLsYfHK-75" value="" style="rounded=0;whiteSpace=wrap;html=1;fontSize=32;" vertex="1" parent="1">
          <mxGeometry x="60" y="1120" width="80" height="40" as="geometry" />
        </mxCell>
        <mxCell id="ENTtIncBovZt0sLsYfHK-107" style="edgeStyle=orthogonalEdgeStyle;rounded=0;orthogonalLoop=1;jettySize=auto;html=1;entryX=0.25;entryY=1;entryDx=0;entryDy=0;fontSize=32;" edge="1" parent="1" source="ENTtIncBovZt0sLsYfHK-76" target="ENTtIncBovZt0sLsYfHK-105">
          <mxGeometry relative="1" as="geometry">
            <Array as="points">
              <mxPoint x="260" y="1180" />
              <mxPoint x="310" y="1180" />
            </Array>
          </mxGeometry>
        </mxCell>
        <mxCell id="ENTtIncBovZt0sLsYfHK-76" value="" style="rounded=0;whiteSpace=wrap;html=1;fontSize=32;" vertex="1" parent="1">
          <mxGeometry x="220" y="1120" width="80" height="40" as="geometry" />
        </mxCell>
        <mxCell id="ENTtIncBovZt0sLsYfHK-108" style="edgeStyle=orthogonalEdgeStyle;rounded=0;orthogonalLoop=1;jettySize=auto;html=1;entryX=0.75;entryY=1;entryDx=0;entryDy=0;fontSize=32;" edge="1" parent="1" source="ENTtIncBovZt0sLsYfHK-77" target="ENTtIncBovZt0sLsYfHK-103">
          <mxGeometry relative="1" as="geometry">
            <Array as="points">
              <mxPoint x="420" y="1180" />
              <mxPoint x="370" y="1180" />
            </Array>
          </mxGeometry>
        </mxCell>
        <mxCell id="ENTtIncBovZt0sLsYfHK-77" value="" style="rounded=0;whiteSpace=wrap;html=1;fontSize=32;" vertex="1" parent="1">
          <mxGeometry x="380" y="1120" width="80" height="40" as="geometry" />
        </mxCell>
        <mxCell id="ENTtIncBovZt0sLsYfHK-122" style="edgeStyle=orthogonalEdgeStyle;rounded=0;orthogonalLoop=1;jettySize=auto;html=1;entryX=0.25;entryY=0;entryDx=0;entryDy=0;fontSize=32;" edge="1" parent="1" source="ENTtIncBovZt0sLsYfHK-78" target="ENTtIncBovZt0sLsYfHK-93">
          <mxGeometry relative="1" as="geometry" />
        </mxCell>
        <mxCell id="ENTtIncBovZt0sLsYfHK-78" value="" style="rounded=0;whiteSpace=wrap;html=1;fontSize=32;" vertex="1" parent="1">
          <mxGeometry x="540" y="1120" width="80" height="40" as="geometry" />
        </mxCell>
        <mxCell id="ENTtIncBovZt0sLsYfHK-123" style="edgeStyle=orthogonalEdgeStyle;rounded=0;orthogonalLoop=1;jettySize=auto;html=1;entryX=0.75;entryY=0;entryDx=0;entryDy=0;fontSize=32;" edge="1" parent="1" source="ENTtIncBovZt0sLsYfHK-93" target="ENTtIncBovZt0sLsYfHK-94">
          <mxGeometry relative="1" as="geometry" />
        </mxCell>
        <mxCell id="ENTtIncBovZt0sLsYfHK-93" value="x" style="whiteSpace=wrap;html=1;aspect=fixed;fontSize=32;" vertex="1" parent="1">
          <mxGeometry x="560" y="1240" width="80" height="80" as="geometry" />
        </mxCell>
        <mxCell id="ENTtIncBovZt0sLsYfHK-126" style="edgeStyle=orthogonalEdgeStyle;rounded=0;orthogonalLoop=1;jettySize=auto;html=1;entryX=0.5;entryY=0;entryDx=0;entryDy=0;fontSize=32;" edge="1" parent="1" source="ENTtIncBovZt0sLsYfHK-94" target="ENTtIncBovZt0sLsYfHK-125">
          <mxGeometry relative="1" as="geometry" />
        </mxCell>
        <mxCell id="ENTtIncBovZt0sLsYfHK-94" value="+" style="whiteSpace=wrap;html=1;aspect=fixed;fontSize=32;" vertex="1" parent="1">
          <mxGeometry x="540" y="1560" width="80" height="80" as="geometry" />
        </mxCell>
        <mxCell id="ENTtIncBovZt0sLsYfHK-121" style="edgeStyle=orthogonalEdgeStyle;rounded=0;orthogonalLoop=1;jettySize=auto;html=1;entryX=0.5;entryY=0;entryDx=0;entryDy=0;fontSize=32;" edge="1" parent="1" source="ENTtIncBovZt0sLsYfHK-96" target="ENTtIncBovZt0sLsYfHK-119">
          <mxGeometry relative="1" as="geometry" />
        </mxCell>
        <mxCell id="ENTtIncBovZt0sLsYfHK-96" value="x" style="whiteSpace=wrap;html=1;aspect=fixed;fontSize=32;" vertex="1" parent="1">
          <mxGeometry x="300" y="1320" width="80" height="80" as="geometry" />
        </mxCell>
        <mxCell id="ENTtIncBovZt0sLsYfHK-104" style="edgeStyle=orthogonalEdgeStyle;rounded=0;orthogonalLoop=1;jettySize=auto;html=1;entryX=0.75;entryY=0;entryDx=0;entryDy=0;fontSize=32;" edge="1" parent="1" source="ENTtIncBovZt0sLsYfHK-103" target="ENTtIncBovZt0sLsYfHK-96">
          <mxGeometry relative="1" as="geometry" />
        </mxCell>
        <mxCell id="ENTtIncBovZt0sLsYfHK-103" value="" style="shape=trapezoid;perimeter=trapezoidPerimeter;whiteSpace=wrap;html=1;fixedSize=1;rotation=-180;fontSize=32;" vertex="1" parent="1">
          <mxGeometry x="350" y="1240" width="80" height="40" as="geometry" />
        </mxCell>
        <mxCell id="ENTtIncBovZt0sLsYfHK-106" style="edgeStyle=orthogonalEdgeStyle;rounded=0;orthogonalLoop=1;jettySize=auto;html=1;entryX=0.25;entryY=0;entryDx=0;entryDy=0;fontSize=32;" edge="1" parent="1" source="ENTtIncBovZt0sLsYfHK-105" target="ENTtIncBovZt0sLsYfHK-96">
          <mxGeometry relative="1" as="geometry" />
        </mxCell>
        <mxCell id="ENTtIncBovZt0sLsYfHK-105" value="" style="shape=trapezoid;perimeter=trapezoidPerimeter;whiteSpace=wrap;html=1;fixedSize=1;rotation=-180;fontSize=32;" vertex="1" parent="1">
          <mxGeometry x="250" y="1240" width="80" height="40" as="geometry" />
        </mxCell>
        <mxCell id="ENTtIncBovZt0sLsYfHK-115" style="edgeStyle=orthogonalEdgeStyle;rounded=0;orthogonalLoop=1;jettySize=auto;html=1;exitX=0;exitY=1;exitDx=0;exitDy=0;entryX=0.5;entryY=0;entryDx=0;entryDy=0;fontSize=32;" edge="1" parent="1" source="ENTtIncBovZt0sLsYfHK-112" target="ENTtIncBovZt0sLsYfHK-75">
          <mxGeometry relative="1" as="geometry">
            <Array as="points">
              <mxPoint x="310" y="1040" />
              <mxPoint x="310" y="1060" />
              <mxPoint x="100" y="1060" />
            </Array>
          </mxGeometry>
        </mxCell>
        <mxCell id="ENTtIncBovZt0sLsYfHK-116" style="edgeStyle=orthogonalEdgeStyle;rounded=0;orthogonalLoop=1;jettySize=auto;html=1;exitX=0.25;exitY=1;exitDx=0;exitDy=0;entryX=0.5;entryY=0;entryDx=0;entryDy=0;fontSize=32;" edge="1" parent="1" source="ENTtIncBovZt0sLsYfHK-112" target="ENTtIncBovZt0sLsYfHK-76">
          <mxGeometry relative="1" as="geometry">
            <Array as="points">
              <mxPoint x="330" y="1040" />
              <mxPoint x="330" y="1100" />
              <mxPoint x="260" y="1100" />
            </Array>
          </mxGeometry>
        </mxCell>
        <mxCell id="ENTtIncBovZt0sLsYfHK-117" style="edgeStyle=orthogonalEdgeStyle;rounded=0;orthogonalLoop=1;jettySize=auto;html=1;exitX=0.75;exitY=1;exitDx=0;exitDy=0;entryX=0.5;entryY=0;entryDx=0;entryDy=0;fontSize=32;" edge="1" parent="1" source="ENTtIncBovZt0sLsYfHK-112" target="ENTtIncBovZt0sLsYfHK-77">
          <mxGeometry relative="1" as="geometry">
            <Array as="points">
              <mxPoint x="350" y="1040" />
              <mxPoint x="350" y="1100" />
              <mxPoint x="420" y="1100" />
            </Array>
          </mxGeometry>
        </mxCell>
        <mxCell id="ENTtIncBovZt0sLsYfHK-118" style="edgeStyle=orthogonalEdgeStyle;rounded=0;orthogonalLoop=1;jettySize=auto;html=1;exitX=1;exitY=1;exitDx=0;exitDy=0;entryX=0.5;entryY=0;entryDx=0;entryDy=0;fontSize=32;" edge="1" parent="1" source="ENTtIncBovZt0sLsYfHK-112" target="ENTtIncBovZt0sLsYfHK-78">
          <mxGeometry relative="1" as="geometry">
            <Array as="points">
              <mxPoint x="370" y="1040" />
              <mxPoint x="370" y="1060" />
              <mxPoint x="580" y="1060" />
            </Array>
          </mxGeometry>
        </mxCell>
        <mxCell id="ENTtIncBovZt0sLsYfHK-112" value="" style="shape=trapezoid;perimeter=trapezoidPerimeter;whiteSpace=wrap;html=1;fixedSize=1;rotation=0;fontSize=32;" vertex="1" parent="1">
          <mxGeometry x="300" y="1000" width="80" height="40" as="geometry" />
        </mxCell>
        <mxCell id="ENTtIncBovZt0sLsYfHK-124" style="edgeStyle=orthogonalEdgeStyle;rounded=0;orthogonalLoop=1;jettySize=auto;html=1;exitX=0.75;exitY=1;exitDx=0;exitDy=0;entryX=0.25;entryY=0;entryDx=0;entryDy=0;fontSize=32;" edge="1" parent="1" source="ENTtIncBovZt0sLsYfHK-119" target="ENTtIncBovZt0sLsYfHK-94">
          <mxGeometry relative="1" as="geometry" />
        </mxCell>
        <mxCell id="ENTtIncBovZt0sLsYfHK-138" style="edgeStyle=orthogonalEdgeStyle;rounded=0;orthogonalLoop=1;jettySize=auto;html=1;exitX=0.25;exitY=1;exitDx=0;exitDy=0;fontSize=32;" edge="1" parent="1" source="ENTtIncBovZt0sLsYfHK-119" target="ENTtIncBovZt0sLsYfHK-137">
          <mxGeometry relative="1" as="geometry" />
        </mxCell>
        <mxCell id="ENTtIncBovZt0sLsYfHK-119" value="" style="shape=trapezoid;perimeter=trapezoidPerimeter;whiteSpace=wrap;html=1;fixedSize=1;rotation=0;fontSize=32;" vertex="1" parent="1">
          <mxGeometry x="300" y="1440" width="80" height="40" as="geometry" />
        </mxCell>
        <mxCell id="ENTtIncBovZt0sLsYfHK-127" style="edgeStyle=orthogonalEdgeStyle;rounded=0;orthogonalLoop=1;jettySize=auto;html=1;entryX=0.75;entryY=0;entryDx=0;entryDy=0;fontSize=32;" edge="1" parent="1" source="ENTtIncBovZt0sLsYfHK-125" target="ENTtIncBovZt0sLsYfHK-93">
          <mxGeometry relative="1" as="geometry">
            <Array as="points">
              <mxPoint x="580" y="1800" />
              <mxPoint x="680" y="1800" />
              <mxPoint x="680" y="1200" />
              <mxPoint x="620" y="1200" />
            </Array>
          </mxGeometry>
        </mxCell>
        <mxCell id="ENTtIncBovZt0sLsYfHK-132" style="edgeStyle=orthogonalEdgeStyle;rounded=0;orthogonalLoop=1;jettySize=auto;html=1;entryX=0;entryY=1;entryDx=0;entryDy=0;fontSize=32;" edge="1" parent="1" source="ENTtIncBovZt0sLsYfHK-125" target="ENTtIncBovZt0sLsYfHK-39">
          <mxGeometry relative="1" as="geometry">
            <Array as="points">
              <mxPoint x="580" y="1800" />
              <mxPoint x="680" y="1800" />
              <mxPoint x="680" y="480" />
            </Array>
          </mxGeometry>
        </mxCell>
        <mxCell id="ENTtIncBovZt0sLsYfHK-125" value="" style="rounded=0;whiteSpace=wrap;html=1;fontSize=32;" vertex="1" parent="1">
          <mxGeometry x="540" y="1720" width="80" height="40" as="geometry" />
        </mxCell>
        <mxCell id="ENTtIncBovZt0sLsYfHK-128" value="" style="group;fontSize=32;" vertex="1" connectable="0" parent="1">
          <mxGeometry x="720" y="320" width="120" height="320" as="geometry" />
        </mxCell>
        <mxCell id="ENTtIncBovZt0sLsYfHK-23" value="" style="rounded=0;whiteSpace=wrap;html=1;fontSize=32;" vertex="1" parent="ENTtIncBovZt0sLsYfHK-128">
          <mxGeometry width="120" height="10" as="geometry" />
        </mxCell>
        <mxCell id="ENTtIncBovZt0sLsYfHK-24" value="" style="rounded=0;whiteSpace=wrap;html=1;fontSize=32;" vertex="1" parent="ENTtIncBovZt0sLsYfHK-128">
          <mxGeometry y="10" width="120" height="10" as="geometry" />
        </mxCell>
        <mxCell id="ENTtIncBovZt0sLsYfHK-25" value="" style="rounded=0;whiteSpace=wrap;html=1;fontSize=32;" vertex="1" parent="ENTtIncBovZt0sLsYfHK-128">
          <mxGeometry y="20" width="120" height="10" as="geometry" />
        </mxCell>
        <mxCell id="ENTtIncBovZt0sLsYfHK-26" value="" style="rounded=0;whiteSpace=wrap;html=1;fontSize=32;" vertex="1" parent="ENTtIncBovZt0sLsYfHK-128">
          <mxGeometry y="30" width="120" height="10" as="geometry" />
        </mxCell>
        <mxCell id="ENTtIncBovZt0sLsYfHK-28" value="" style="rounded=0;whiteSpace=wrap;html=1;fontSize=32;" vertex="1" parent="ENTtIncBovZt0sLsYfHK-128">
          <mxGeometry y="40" width="120" height="10" as="geometry" />
        </mxCell>
        <mxCell id="ENTtIncBovZt0sLsYfHK-29" value="" style="rounded=0;whiteSpace=wrap;html=1;fontSize=32;" vertex="1" parent="ENTtIncBovZt0sLsYfHK-128">
          <mxGeometry y="50" width="120" height="10" as="geometry" />
        </mxCell>
        <mxCell id="ENTtIncBovZt0sLsYfHK-30" value="" style="rounded=0;whiteSpace=wrap;html=1;fontSize=32;" vertex="1" parent="ENTtIncBovZt0sLsYfHK-128">
          <mxGeometry y="60" width="120" height="10" as="geometry" />
        </mxCell>
        <mxCell id="ENTtIncBovZt0sLsYfHK-31" value="" style="rounded=0;whiteSpace=wrap;html=1;fontSize=32;" vertex="1" parent="ENTtIncBovZt0sLsYfHK-128">
          <mxGeometry y="70" width="120" height="10" as="geometry" />
        </mxCell>
        <mxCell id="ENTtIncBovZt0sLsYfHK-32" value="" style="rounded=0;whiteSpace=wrap;html=1;fontSize=32;" vertex="1" parent="ENTtIncBovZt0sLsYfHK-128">
          <mxGeometry y="80" width="120" height="10" as="geometry" />
        </mxCell>
        <mxCell id="ENTtIncBovZt0sLsYfHK-33" value="" style="rounded=0;whiteSpace=wrap;html=1;fontSize=32;" vertex="1" parent="ENTtIncBovZt0sLsYfHK-128">
          <mxGeometry y="90" width="120" height="10" as="geometry" />
        </mxCell>
        <mxCell id="ENTtIncBovZt0sLsYfHK-34" value="" style="rounded=0;whiteSpace=wrap;html=1;fontSize=32;" vertex="1" parent="ENTtIncBovZt0sLsYfHK-128">
          <mxGeometry y="100" width="120" height="10" as="geometry" />
        </mxCell>
        <mxCell id="ENTtIncBovZt0sLsYfHK-35" value="" style="rounded=0;whiteSpace=wrap;html=1;fontSize=32;" vertex="1" parent="ENTtIncBovZt0sLsYfHK-128">
          <mxGeometry y="110" width="120" height="10" as="geometry" />
        </mxCell>
        <mxCell id="ENTtIncBovZt0sLsYfHK-36" value="" style="rounded=0;whiteSpace=wrap;html=1;fontSize=32;" vertex="1" parent="ENTtIncBovZt0sLsYfHK-128">
          <mxGeometry y="120" width="120" height="10" as="geometry" />
        </mxCell>
        <mxCell id="ENTtIncBovZt0sLsYfHK-37" value="" style="rounded=0;whiteSpace=wrap;html=1;fontSize=32;" vertex="1" parent="ENTtIncBovZt0sLsYfHK-128">
          <mxGeometry y="130" width="120" height="10" as="geometry" />
        </mxCell>
        <mxCell id="ENTtIncBovZt0sLsYfHK-38" value="" style="rounded=0;whiteSpace=wrap;html=1;fontSize=32;" vertex="1" parent="ENTtIncBovZt0sLsYfHK-128">
          <mxGeometry y="140" width="120" height="10" as="geometry" />
        </mxCell>
        <mxCell id="ENTtIncBovZt0sLsYfHK-39" value="" style="rounded=0;whiteSpace=wrap;html=1;fontSize=32;" vertex="1" parent="ENTtIncBovZt0sLsYfHK-128">
          <mxGeometry y="150" width="120" height="10" as="geometry" />
        </mxCell>
        <mxCell id="ENTtIncBovZt0sLsYfHK-56" value="" style="rounded=0;whiteSpace=wrap;html=1;fontSize=32;" vertex="1" parent="ENTtIncBovZt0sLsYfHK-128">
          <mxGeometry y="160" width="120" height="10" as="geometry" />
        </mxCell>
        <mxCell id="ENTtIncBovZt0sLsYfHK-57" value="" style="rounded=0;whiteSpace=wrap;html=1;fontSize=32;" vertex="1" parent="ENTtIncBovZt0sLsYfHK-128">
          <mxGeometry y="170" width="120" height="10" as="geometry" />
        </mxCell>
        <mxCell id="ENTtIncBovZt0sLsYfHK-58" value="" style="rounded=0;whiteSpace=wrap;html=1;fontSize=32;" vertex="1" parent="ENTtIncBovZt0sLsYfHK-128">
          <mxGeometry y="180" width="120" height="10" as="geometry" />
        </mxCell>
        <mxCell id="ENTtIncBovZt0sLsYfHK-59" value="" style="rounded=0;whiteSpace=wrap;html=1;fontSize=32;" vertex="1" parent="ENTtIncBovZt0sLsYfHK-128">
          <mxGeometry y="190" width="120" height="10" as="geometry" />
        </mxCell>
        <mxCell id="ENTtIncBovZt0sLsYfHK-60" value="" style="rounded=0;whiteSpace=wrap;html=1;fontSize=32;" vertex="1" parent="ENTtIncBovZt0sLsYfHK-128">
          <mxGeometry y="200" width="120" height="10" as="geometry" />
        </mxCell>
        <mxCell id="ENTtIncBovZt0sLsYfHK-61" value="" style="rounded=0;whiteSpace=wrap;html=1;fontSize=32;" vertex="1" parent="ENTtIncBovZt0sLsYfHK-128">
          <mxGeometry y="210" width="120" height="10" as="geometry" />
        </mxCell>
        <mxCell id="ENTtIncBovZt0sLsYfHK-62" value="" style="rounded=0;whiteSpace=wrap;html=1;fontSize=32;" vertex="1" parent="ENTtIncBovZt0sLsYfHK-128">
          <mxGeometry y="220" width="120" height="10" as="geometry" />
        </mxCell>
        <mxCell id="ENTtIncBovZt0sLsYfHK-63" value="" style="rounded=0;whiteSpace=wrap;html=1;fontSize=32;" vertex="1" parent="ENTtIncBovZt0sLsYfHK-128">
          <mxGeometry y="230" width="120" height="10" as="geometry" />
        </mxCell>
        <mxCell id="ENTtIncBovZt0sLsYfHK-64" value="" style="rounded=0;whiteSpace=wrap;html=1;fontSize=32;" vertex="1" parent="ENTtIncBovZt0sLsYfHK-128">
          <mxGeometry y="240" width="120" height="10" as="geometry" />
        </mxCell>
        <mxCell id="ENTtIncBovZt0sLsYfHK-65" value="" style="rounded=0;whiteSpace=wrap;html=1;fontSize=32;" vertex="1" parent="ENTtIncBovZt0sLsYfHK-128">
          <mxGeometry y="250" width="120" height="10" as="geometry" />
        </mxCell>
        <mxCell id="ENTtIncBovZt0sLsYfHK-66" value="" style="rounded=0;whiteSpace=wrap;html=1;fontSize=32;" vertex="1" parent="ENTtIncBovZt0sLsYfHK-128">
          <mxGeometry y="260" width="120" height="10" as="geometry" />
        </mxCell>
        <mxCell id="ENTtIncBovZt0sLsYfHK-67" value="" style="rounded=0;whiteSpace=wrap;html=1;fontSize=32;" vertex="1" parent="ENTtIncBovZt0sLsYfHK-128">
          <mxGeometry y="270" width="120" height="10" as="geometry" />
        </mxCell>
        <mxCell id="ENTtIncBovZt0sLsYfHK-68" value="" style="rounded=0;whiteSpace=wrap;html=1;fontSize=32;" vertex="1" parent="ENTtIncBovZt0sLsYfHK-128">
          <mxGeometry y="280" width="120" height="10" as="geometry" />
        </mxCell>
        <mxCell id="ENTtIncBovZt0sLsYfHK-69" value="" style="rounded=0;whiteSpace=wrap;html=1;fontSize=32;" vertex="1" parent="ENTtIncBovZt0sLsYfHK-128">
          <mxGeometry y="290" width="120" height="10" as="geometry" />
        </mxCell>
        <mxCell id="ENTtIncBovZt0sLsYfHK-70" value="" style="rounded=0;whiteSpace=wrap;html=1;fontSize=32;" vertex="1" parent="ENTtIncBovZt0sLsYfHK-128">
          <mxGeometry y="300" width="120" height="10" as="geometry" />
        </mxCell>
        <mxCell id="ENTtIncBovZt0sLsYfHK-71" value="" style="rounded=0;whiteSpace=wrap;html=1;fontSize=32;" vertex="1" parent="ENTtIncBovZt0sLsYfHK-128">
          <mxGeometry y="310" width="120" height="10" as="geometry" />
        </mxCell>
        <mxCell id="ENTtIncBovZt0sLsYfHK-133" style="edgeStyle=orthogonalEdgeStyle;rounded=0;orthogonalLoop=1;jettySize=auto;html=1;entryX=0.5;entryY=0;entryDx=0;entryDy=0;fontSize=32;" edge="1" parent="1" source="ENTtIncBovZt0sLsYfHK-39" target="ENTtIncBovZt0sLsYfHK-73">
          <mxGeometry relative="1" as="geometry">
            <Array as="points">
              <mxPoint x="880" y="480" />
              <mxPoint x="880" y="680" />
              <mxPoint x="360" y="680" />
            </Array>
          </mxGeometry>
        </mxCell>
        <mxCell id="ENTtIncBovZt0sLsYfHK-135" style="edgeStyle=orthogonalEdgeStyle;rounded=0;orthogonalLoop=1;jettySize=auto;html=1;entryX=0.25;entryY=1;entryDx=0;entryDy=0;fontSize=32;" edge="1" parent="1" source="ENTtIncBovZt0sLsYfHK-56" target="ENTtIncBovZt0sLsYfHK-103">
          <mxGeometry relative="1" as="geometry">
            <Array as="points">
              <mxPoint x="880" y="480" />
              <mxPoint x="880" y="1220" />
              <mxPoint x="410" y="1220" />
            </Array>
          </mxGeometry>
        </mxCell>
        <mxCell id="ENTtIncBovZt0sLsYfHK-139" style="edgeStyle=orthogonalEdgeStyle;rounded=0;orthogonalLoop=1;jettySize=auto;html=1;entryX=0.25;entryY=0;entryDx=0;entryDy=0;fontSize=32;" edge="1" parent="1" source="ENTtIncBovZt0sLsYfHK-137" target="ENTtIncBovZt0sLsYfHK-1">
          <mxGeometry relative="1" as="geometry">
            <Array as="points">
              <mxPoint x="100" y="1800" />
              <mxPoint x="10" y="1800" />
              <mxPoint x="10" y="-20" />
              <mxPoint x="280" y="-20" />
            </Array>
          </mxGeometry>
        </mxCell>
        <mxCell id="ENTtIncBovZt0sLsYfHK-137" value="" style="rounded=0;whiteSpace=wrap;html=1;fontSize=32;" vertex="1" parent="1">
          <mxGeometry x="60" y="1720" width="80" height="40" as="geometry" />
        </mxCell>
      </root>
    </mxGraphModel>
  </diagram>
</mxfile>
